<svg xmlns="http://www.w3.org/2000/svg" xmlns:xlink="http://www.w3.org/1999/xlink" width="189.3124" height="37.1524"><path fill="#000" d="M15.15 18.04L19.84 7.39L15.95 7.39L11.25 18.04ZM12.65 29.42L12.65 25.68C12.65 22.86 12.30 22.03 11.22 19.69L5.58 7.39L1.58 7.39L8.81 23.11L8.81 29.42ZM55.22 29.73C57.00 29.73 58.45 28.91 59.47 27.36L59.66 29.42L63.15 29.42L63.15 7.39L59.37 7.39L59.37 15.34C58.42 13.92 57.03 13.16 55.38 13.16C51.73 13.16 49.20 16.23 49.20 21.56C49.20 26.82 51.67 29.73 55.22 29.73ZM78.39 28.34L78.39 25.26C77.22 26.06 75.26 26.75 73.42 26.75C70.66 26.75 69.61 25.46 69.45 22.79L78.55 22.79L78.55 20.80C78.55 15.25 76.11 13.16 72.34 13.16C67.74 13.16 65.56 16.67 65.56 21.49C65.56 27.04 68.28 29.73 73.10 29.73C75.51 29.73 77.28 29.10 78.39 28.34ZM37.79 17.97C38.48 17.12 39.59 16.39 40.96 16.39C42.29 16.39 42.89 16.96 42.89 18.16L42.89 29.42L46.66 29.42L46.66 17.78C46.66 14.61 45.39 13.22 42.32 13.22C40.07 13.22 38.74 14.04 37.98 14.80L37.79 14.80L37.69 13.47L34.01 13.47L34.01 29.42L37.79 29.42ZM30.94 18.54C30.94 14.68 28.97 13.22 24.98 13.22C22.48 13.22 20.51 14.01 19.37 14.68L19.37 17.82C20.38 17.05 22.60 16.23 24.54 16.23C26.34 16.23 27.17 16.86 27.17 18.58L27.17 19.46L26.56 19.46C20.80 19.46 18.23 21.37 18.23 24.60C18.23 27.83 20.19 29.64 23.11 29.64C25.33 29.64 26.28 28.91 27.01 28.15L27.17 28.15C27.20 28.56 27.33 29.10 27.45 29.42L31.13 29.42C31.00 28.12 30.94 26.82 30.94 25.52ZM90.00 29.42L94.24 29.42L89.05 21.21L93.55 13.47L89.77 13.47L87.05 18.29L84.00 13.47L79.76 13.47L84.58 21.11L79.57 29.42L83.40 29.42L86.60 24.03ZM56.33 16.14C58.36 16.14 59.37 17.75 59.37 21.43C59.37 25.14 58.30 26.75 56.17 26.75C54.11 26.75 53.10 25.17 53.10 21.56C53.10 17.78 54.18 16.14 56.33 16.14ZM72.28 16.14C74.15 16.14 74.72 17.69 74.72 19.69L74.72 20.00L69.45 20.00C69.55 17.47 70.47 16.14 72.28 16.14ZM27.17 25.61C26.69 26.31 25.80 26.88 24.47 26.88C22.89 26.88 22.09 25.99 22.09 24.63C22.09 22.82 23.39 22.16 26.63 22.16L27.17 22.16ZM110.85 29.42L114.22 29.42L118.65 13.00L118.65 29.42L122.33 29.42L122.33 7.39L117.19 7.39L112.73 23.90L108.22 7.39L103.12 7.39L103.12 29.42L106.42 29.42L106.42 13.00ZM137.42 18.54C137.42 14.68 135.45 13.22 131.46 13.22C128.96 13.22 126.99 14.01 125.85 14.68L125.85 17.82C126.86 17.05 129.08 16.23 131.02 16.23C132.82 16.23 133.65 16.86 133.65 18.58L133.65 19.46L133.04 19.46C127.28 19.46 124.71 21.37 124.71 24.60C124.71 27.83 126.67 29.64 129.59 29.64C131.81 29.64 132.76 28.91 133.49 28.15L133.65 28.15C133.68 28.56 133.81 29.10 133.93 29.42L137.61 29.42C137.48 28.12 137.42 26.82 137.42 25.52ZM133.65 25.61C133.17 26.31 132.28 26.88 130.95 26.88C129.37 26.88 128.58 25.99 128.58 24.63C128.58 22.82 129.87 22.16 133.11 22.16L133.65 22.16ZM144.24 19.46C145.28 17.53 146.83 16.55 149.15 16.67L149.15 13.12C146.99 13.25 145.22 14.55 144.33 16.64L144.24 16.64L144.14 13.47L140.46 13.47L140.46 29.42L144.24 29.42ZM160.56 29.42L164.84 29.42L158.66 20.86L164.11 13.47L160.31 13.47L154.98 20.83L154.98 7.39L151.21 7.39L151.21 29.42L154.98 29.42L154.98 21.59ZM177.52 28.34L177.52 25.26C176.35 26.06 174.38 26.75 172.54 26.75C169.79 26.75 168.74 25.46 168.58 22.79L177.68 22.79L177.68 20.80C177.68 15.25 175.24 13.16 171.47 13.16C166.87 13.16 164.68 16.67 164.68 21.49C164.68 27.04 167.41 29.73 172.23 29.73C174.64 29.73 176.41 29.10 177.52 28.34ZM171.40 16.14C173.27 16.14 173.84 17.69 173.84 19.69L173.84 20.00L168.58 20.00C168.68 17.47 169.59 16.14 171.40 16.14ZM178.95 13.47L178.95 16.45L180.94 16.45L180.94 24.63C180.94 27.61 182.62 29.73 186.11 29.73C187.95 29.73 189.00 29.32 189.00 29.32L189.00 26.25C189.00 26.25 188.30 26.75 187.03 26.75C185.44 26.75 184.72 25.84 184.72 24.66L184.72 16.45L188.68 16.45L188.68 13.47L184.72 13.47L184.72 9.99L180.94 9.99L180.94 13.47Z"/></svg>